<svg width="32" height="32" viewBox="0 0 32 32" fill="none" xmlns="http://www.w3.org/2000/svg">
<path d="M2 16C2 23.732 8.26801 30 16 30C23.732 30 30 23.732 30 16C30 8.26801 23.732 2 16 2C8.26801 2 2 8.26801 2 16Z" fill="white" stroke="white" stroke-width="3"/>
<path d="M16 23.2607V23.2414" stroke="#333333" stroke-width="2" stroke-linecap="round" stroke-linejoin="round"/>
<path d="M11.6552 13.1034C11.6552 12.2441 11.91 11.4041 12.3874 10.6896C12.8648 9.97507 13.5434 9.41819 14.3373 9.08934C15.1312 8.76049 16.0048 8.67445 16.8476 8.84209C17.6904 9.00974 18.4646 9.42354 19.0722 10.0312C19.6799 10.6388 20.0937 11.413 20.2613 12.2558C20.429 13.0986 20.3429 13.9722 20.0141 14.7661C19.6852 15.56 19.1283 16.2386 18.4138 16.716C17.6993 17.1934 16.8593 17.4483 16 17.4483L16 18.4138" stroke="#333333" stroke-width="2" stroke-linecap="round" stroke-linejoin="round"/>
</svg>
